<svg width="24" height="17" viewBox="0 0 24 17" fill="none" xmlns="http://www.w3.org/2000/svg">
<path d="M21.1866 8.41486H20.7999V3.93469C20.7977 2.01758 19.2493 0.463996 17.3386 0.461792H6.80433C4.89361 0.463996 3.34521 2.01758 3.34301 3.93469V8.41486H2.95638C1.87651 8.41612 1.0011 9.2943 1 10.3778V13.0336C1.0011 14.1171 1.87651 14.9951 2.95638 14.9965H3.78032V15.5541C3.78095 16.0847 4.20963 16.5147 4.73858 16.5153H6.25247C6.78126 16.5147 7.21011 16.0847 7.21073 15.5541V14.9965H16.9324V15.5541C16.933 16.0847 17.3615 16.5147 17.8905 16.5153H19.4048C19.9338 16.5147 20.3625 16.0847 20.3629 15.5541V14.9965H21.187C22.2669 14.9951 23.1423 14.1171 23.1434 13.0336V10.3778C23.1423 9.29414 22.2668 8.41596 21.1866 8.41486ZM4.24588 3.93469C4.24745 2.51776 5.39212 1.36957 6.80433 1.36768H17.3386C18.7508 1.36957 19.8953 2.51776 19.8969 3.93469V8.41486H19.0679V6.84537C19.0672 6.21153 18.5553 5.69798 17.9236 5.69719H13.593C12.9614 5.69798 12.4494 6.21169 12.4488 6.84537V8.41486H11.6942V6.84537C11.6934 6.21169 11.1815 5.69798 10.5498 5.69719H6.21952C5.58779 5.69798 5.07579 6.21153 5.075 6.84537V8.41486H4.24588V3.93469ZM18.1649 8.41486H13.3518V6.84537C13.3518 6.71171 13.4598 6.60339 13.593 6.60324H17.9236C18.0568 6.60339 18.1648 6.71171 18.1649 6.84537V8.41486ZM10.7913 8.41486H5.97788V6.84537C5.97819 6.71171 6.08614 6.60339 6.21952 6.60324H10.5498C10.6832 6.60339 10.7912 6.71171 10.7913 6.84537V8.41486ZM2.95638 9.32091H21.1866C21.7681 9.3217 22.2393 9.79448 22.2399 10.3778V12.3642H1.90287V10.3778C1.9035 9.79448 2.37486 9.3217 2.95638 9.32091ZM6.3077 15.5538C6.3077 15.5844 6.28323 15.6091 6.25279 15.6091H4.73843C4.70799 15.6091 4.68351 15.5844 4.68351 15.5538V14.9965H6.3077V15.5538ZM19.4596 15.5538C19.4596 15.5844 19.435 15.6091 19.4045 15.6091H17.8905C17.86 15.6091 17.8356 15.5844 17.8356 15.5538V14.9965H19.4598L19.4596 15.5538ZM21.1866 14.0906H2.95638C2.46587 14.0895 2.04064 13.7496 1.93064 13.27H22.2123C22.1021 13.7496 21.6772 14.0895 21.1866 14.0906Z" fill="#757575" stroke="#757575" stroke-width="0.2"/>
</svg>
