<svg width="17" height="16" viewBox="0 0 17 16" fill="none" xmlns="http://www.w3.org/2000/svg">
<path fill-rule="evenodd" clip-rule="evenodd" d="M4.05063 0C4.3862 0 4.65823 0.27203 4.65823 0.607595V1.41772H11.5443V0.607595C11.5443 0.27203 11.8163 0 12.1519 0C12.4875 0 12.7595 0.27203 12.7595 0.607595V1.41772H13.7722C15.1144 1.41772 16.2025 2.50584 16.2025 3.8481V13.5696C16.2025 14.9119 15.1144 16 13.7722 16H2.43038C1.08812 16 0 14.9119 0 13.5696V3.8481C0 2.50584 1.08812 1.41772 2.43038 1.41772H3.44304V0.607595C3.44304 0.27203 3.71507 0 4.05063 0ZM11.5443 2.63291V3.8481C11.5443 4.18367 11.8163 4.4557 12.1519 4.4557C12.4875 4.4557 12.7595 4.18367 12.7595 3.8481V2.63291H13.7722C14.4433 2.63291 14.9873 3.17697 14.9873 3.8481V6.48101H1.21519V3.8481C1.21519 3.17697 1.75925 2.63291 2.43038 2.63291H3.44304V3.8481C3.44304 4.18367 3.71507 4.4557 4.05063 4.4557C4.3862 4.4557 4.65823 4.18367 4.65823 3.8481V2.63291H11.5443ZM1.21519 7.6962V13.5696C1.21519 14.2408 1.75925 14.7848 2.43038 14.7848H13.7722C14.4433 14.7848 14.9873 14.2408 14.9873 13.5696V7.6962H1.21519Z" fill="#9BAAD3"/>
</svg>
