<svg width="16" height="16" viewBox="0 0 16 16" fill="none" xmlns="http://www.w3.org/2000/svg">
<path fill-rule="evenodd" clip-rule="evenodd" d="M8 14.8C11.7555 14.8 14.8 11.7555 14.8 8C14.8 4.24446 11.7555 1.2 8 1.2C4.24446 1.2 1.2 4.24446 1.2 8C1.2 11.7555 4.24446 14.8 8 14.8ZM16 8C16 12.4183 12.4183 16 8 16C3.58172 16 0 12.4183 0 8C0 3.58172 3.58172 0 8 0C12.4183 0 16 3.58172 16 8Z" fill="#9BAAD3"/>
<path fill-rule="evenodd" clip-rule="evenodd" d="M10.4507 5.54932L7.06363 6.81946C6.9508 6.86178 6.86178 6.9508 6.81946 7.06363L5.54932 10.4507L8.93637 9.18054C9.0492 9.13822 9.13822 9.0492 9.18054 8.93637L10.4507 5.54932ZM10.8706 4.05501L6.62413 5.64745C6.17281 5.8167 5.8167 6.17281 5.64745 6.62413L4.05501 10.8706C3.80345 11.5415 4.45853 12.1965 5.12935 11.945L9.37587 10.3525C9.82719 10.1833 10.1833 9.82719 10.3525 9.37587L11.945 5.12935C12.1965 4.45853 11.5415 3.80345 10.8706 4.05501Z" fill="#9BAAD3"/>
</svg>
