<svg width="50" height="52" viewBox="0 0 50 52" fill="none" xmlns="http://www.w3.org/2000/svg">
<g filter="url(#filter0_f)">
<circle cx="26" cy="26" r="10" fill="#F86549"/>
</g>
<circle cx="26" cy="16" r="15" fill="#F86549"/>
<path fill-rule="evenodd" clip-rule="evenodd" d="M20.8114 22.1143H18.6857C18.307 22.1143 18 21.8073 18 21.4286C18 21.0499 18.307 20.7429 18.6857 20.7429H20.8114C21.1291 19.1779 22.5127 18 24.1714 18C25.8301 18 27.2137 19.1779 27.5314 20.7429H33.3143C33.693 20.7429 34 21.0499 34 21.4286C34 21.8073 33.693 22.1143 33.3143 22.1143H27.5314C27.2137 23.6793 25.8301 24.8571 24.1714 24.8571C22.5127 24.8571 21.1291 23.6793 20.8114 22.1143ZM22.1143 21.4286C22.1143 20.2924 23.0353 19.3714 24.1714 19.3714C25.3076 19.3714 26.2286 20.2924 26.2286 21.4286C26.2286 22.5647 25.3076 23.4857 24.1714 23.4857C23.0353 23.4857 22.1143 22.5647 22.1143 21.4286Z" fill="white"/>
<path fill-rule="evenodd" clip-rule="evenodd" d="M24.4686 12.1143H18.6857C18.307 12.1143 18 11.8073 18 11.4286C18 11.0499 18.307 10.7429 18.6857 10.7429H24.4686C24.7863 9.17789 26.1699 8 27.8286 8C29.4873 8 30.8709 9.17789 31.1886 10.7429H33.3143C33.693 10.7429 34 11.0499 34 11.4286C34 11.8073 33.693 12.1143 33.3143 12.1143H31.1886C30.8709 13.6793 29.4873 14.8571 27.8286 14.8571C26.1699 14.8571 24.7863 13.6793 24.4686 12.1143ZM25.7714 11.4286C25.7714 10.2924 26.6924 9.37143 27.8286 9.37143C28.9647 9.37143 29.8857 10.2924 29.8857 11.4286C29.8857 12.5647 28.9647 13.4857 27.8286 13.4857C26.6924 13.4857 25.7714 12.5647 25.7714 11.4286Z" fill="white"/>
<defs>
<filter id="filter0_f" x="0" y="0" width="52" height="52" filterUnits="userSpaceOnUse" color-interpolation-filters="sRGB">
<feFlood flood-opacity="0" result="BackgroundImageFix"/>
<feBlend mode="normal" in="SourceGraphic" in2="BackgroundImageFix" result="shape"/>
<feGaussianBlur stdDeviation="8" result="effect1_foregroundBlur"/>
</filter>
</defs>
</svg>
