<svg width="20" height="18" viewBox="0 0 20 18" fill="none" xmlns="http://www.w3.org/2000/svg">
<path d="M16.0526 11.7625C16.1382 11.8958 16.262 11.9999 16.4048 12.0684C17.4964 12.5925 18.2501 13.7082 18.2501 15V17C18.2501 17.4142 18.5859 17.75 19.0001 17.75C19.4143 17.75 19.7501 17.4142 19.7501 17V15C19.7501 12.3766 17.6234 10.25 15.0001 10.25C14.8914 10.25 14.8424 10.3902 14.9246 10.4614C15.3598 10.838 15.7403 11.2763 16.0526 11.7625Z" fill="black"/>
<path fill-rule="evenodd" clip-rule="evenodd" d="M5 11.75C3.20507 11.75 1.75 13.2051 1.75 15V17C1.75 17.4142 1.41421 17.75 1 17.75C0.585786 17.75 0.25 17.4142 0.25 17V15C0.25 12.3766 2.37665 10.25 5 10.25H11C13.6234 10.25 15.75 12.3766 15.75 15V17C15.75 17.4142 15.4142 17.75 15 17.75C14.5858 17.75 14.25 17.4142 14.25 17V15C14.25 13.2051 12.7949 11.75 11 11.75H5Z" fill="black"/>
<path d="M12.8706 6.55748C12.9595 6.3884 13.1009 6.25336 13.2656 6.15651C14.0043 5.72208 14.5001 4.91894 14.5001 4C14.5001 3.08106 14.0043 2.27792 13.2656 1.84349C13.1009 1.74664 12.9595 1.6116 12.8706 1.44252C12.622 0.970105 12.3067 0.538266 11.9372 0.159537C11.8795 0.100375 11.9174 0 12.0001 0C14.2092 0 16.0001 1.79086 16.0001 4C16.0001 6.20914 14.2092 8 12.0001 8C11.9174 8 11.8795 7.89963 11.9372 7.84046C12.3067 7.46173 12.622 7.0299 12.8706 6.55748Z" fill="black"/>
<path fill-rule="evenodd" clip-rule="evenodd" d="M8 6.5C9.38071 6.5 10.5 5.38071 10.5 4C10.5 2.61929 9.38071 1.5 8 1.5C6.61929 1.5 5.5 2.61929 5.5 4C5.5 5.38071 6.61929 6.5 8 6.5ZM8 8C10.2091 8 12 6.20914 12 4C12 1.79086 10.2091 0 8 0C5.79086 0 4 1.79086 4 4C4 6.20914 5.79086 8 8 8Z" fill="black"/>
</svg>
