<svg width="16" height="16" viewBox="0 0 16 16" fill="none" xmlns="http://www.w3.org/2000/svg">
<path fill-rule="evenodd" clip-rule="evenodd" d="M2.4 16C1.07452 16 0 14.9235 0 13.5957V7.45345C0 6.77185 0.288771 6.12228 0.794485 5.66632L6.39448 0.617208C7.30722 -0.205735 8.69278 -0.205736 9.60552 0.617207L15.2055 5.66632C15.7112 6.12228 16 6.77185 16 7.45345V13.5957C16 14.9235 14.9255 16 13.6 16H2.4ZM14.8 7.45345V13.5957C14.8 14.2596 14.2627 14.7978 13.6 14.7978H11.2V10.3899C11.2 9.062 10.1255 7.98554 8.8 7.98554H7.2C5.87452 7.98554 4.8 9.062 4.8 10.3899V14.7978H2.4C1.73726 14.7978 1.2 14.2596 1.2 13.5957V7.45345C1.2 7.11265 1.34439 6.78786 1.59724 6.55988L7.19724 1.51077C7.65361 1.0993 8.34639 1.0993 8.80276 1.51077L14.4028 6.55988C14.6556 6.78786 14.8 7.11265 14.8 7.45345ZM6 14.7978V10.3899C6 9.72594 6.53726 9.18771 7.2 9.18771H8.8C9.46274 9.18771 10 9.72594 10 10.3899V14.7978H6Z" fill="white"/>
</svg>
