<svg width="13" height="14" viewBox="0 0 13 14" fill="none" xmlns="http://www.w3.org/2000/svg">
<path d="M6.41827 13.15C3.55136 13.15 0.684448 11.3237 0.684448 7.73887C0.684448 6.58901 1.11448 5.03331 1.54452 3.88345C1.6317 3.65034 1.8791 3.47761 2.1179 3.47761C2.43027 3.47761 2.65466 3.67903 2.76296 3.88345C2.9063 4.28928 3.04965 4.69511 3.19299 5.03331C3.45065 5.68174 3.76638 6.0479 4.26808 6.38609C3.96993 5.46857 3.97369 4.60663 4.26808 3.68053C4.91314 1.65136 6.0599 0.636769 6.91997 0.0956562L7.06332 0.028017C7.20667 -0.0396221 7.42168 0.0280171 7.56503 0.0956562C7.70837 0.163295 7.85172 0.366212 7.85172 0.636769C7.85172 1.31315 8.26471 2.71749 9.28517 3.68052C10.6101 4.76275 12.1521 6.11553 12.1521 8.41526C12.1521 11.0532 9.57187 13.15 6.41827 13.15ZM2.18958 5.3715C1.90288 6.31845 1.75954 7.13012 1.75954 7.73887C1.75954 10.7826 4.19641 12.1354 6.41827 12.1354C8.99848 12.1354 11.077 10.4444 11.077 8.41526C11.077 5.70969 8.56845 5.0333 7.49336 3.00413C7.1329 2.42882 7.08031 2.01929 6.91997 1.31316C6.34659 1.85427 5.70154 2.66593 5.34317 3.88345C5.0648 4.67158 5.12062 5.43914 5.2715 6.0479C5.41485 6.45373 5.2715 6.85956 4.98481 7.13012C4.62645 7.40068 4.19641 7.46832 3.76638 7.2654C2.83463 6.72428 2.47627 6.04788 2.18958 5.3715Z" fill="black"/>
</svg>
