<svg width="12" height="11" viewBox="0 0 12 11" fill="none" xmlns="http://www.w3.org/2000/svg">
<path d="M10.8944 1.85899C8.06956 0.172568 5.23595 0.0401261 2.69715 1.44842C1.24515 2.24748 0.224355 3.5719 0.0351549 4.93163C-0.0265004 5.35134 -0.00210697 5.77927 0.106841 6.18919C0.215789 6.59911 0.406998 6.9824 0.668755 7.31558C1.45954 5.84109 2.66538 4.63275 4.13595 3.8412C4.16117 3.82506 4.1894 3.81425 4.21891 3.80944C4.24843 3.80462 4.27862 3.80588 4.30763 3.81316C4.33664 3.82044 4.36387 3.83358 4.38765 3.85178C4.41143 3.86997 4.43127 3.89284 4.44594 3.91898C4.46062 3.94513 4.46983 3.974 4.47301 4.00383C4.47619 4.03367 4.47327 4.06384 4.46444 4.09251C4.4556 4.12117 4.44104 4.14773 4.42163 4.17056C4.40222 4.19339 4.37838 4.21201 4.35155 4.22528C1.47835 5.83223 0.541155 8.24709 0.00875494 10.4059C0.00843039 10.4537 0.0239032 10.5003 0.0527549 10.5383C0.136355 10.6443 0.281555 10.6222 0.549955 10.6266H1.02515C1.50475 10.6266 1.50915 10.5957 1.53995 10.4412C1.67304 9.77569 1.87965 9.12714 2.15595 8.50755C4.29435 9.4523 7.22915 8.06608 8.45675 6.58274C8.94615 5.9477 9.31186 5.2258 9.53475 4.45484C9.83395 3.63371 10.12 2.83906 10.912 2.24748C10.9419 2.22729 10.9664 2.20002 10.9834 2.16807C11.0004 2.13612 11.0092 2.10048 11.0092 2.06427C11.0092 2.02807 11.0004 1.99243 10.9834 1.96048C10.9664 1.92853 10.9419 1.90126 10.912 1.88106L10.8944 1.85899Z" fill="#757575"/>
</svg>
