<svg width="15" height="16" viewBox="0 0 15 16" fill="none" xmlns="http://www.w3.org/2000/svg">
<path d="M10.6109 2.35406C10.7733 2.03537 11.1651 1.90632 11.4686 2.09557C12.7063 2.86741 13.6965 3.98644 14.3111 5.31962C15.0164 6.84952 15.186 8.57231 14.7928 10.2104C14.3995 11.8485 13.4662 13.3065 12.1432 14.3494C10.8202 15.3924 9.18465 15.9596 7.50001 15.9596C5.81537 15.9596 4.17979 15.3924 2.85681 14.3494C1.53383 13.3065 0.600509 11.8485 0.207234 10.2104C-0.18604 8.57233 -0.0163626 6.84953 0.688925 5.31964C1.30353 3.98646 2.29367 2.86742 3.53141 2.09558C3.8349 1.90633 4.22669 2.03538 4.38907 2.35406C4.55145 2.67275 4.42245 3.05996 4.12242 3.25465C3.14245 3.89056 2.35793 4.79304 1.86518 5.8619C1.28169 7.12758 1.14132 8.55286 1.46667 9.90806C1.79203 11.2633 2.56417 12.4695 3.65867 13.3323C4.75318 14.1951 6.1063 14.6643 7.50001 14.6643C8.89371 14.6643 10.2468 14.1951 11.3413 13.3323C12.4358 12.4694 13.208 11.2632 13.5333 9.90804C13.8587 8.55284 13.7183 7.12757 13.1348 5.86188C12.6421 4.79303 11.8575 3.89055 10.8776 3.25465C10.5775 3.05995 10.4485 2.67274 10.6109 2.35406Z" fill="#9BAAD3"/>
<path fill-rule="evenodd" clip-rule="evenodd" d="M7.75 0C8.16421 0 8.5 0.309957 8.5 0.692308V5.30769C8.5 5.69004 8.16421 6 7.75 6C7.33579 6 7 5.69004 7 5.30769V0.692308C7 0.309957 7.33579 0 7.75 0Z" fill="#9BAAD3"/>
</svg>
