<svg width="19" height="17" viewBox="0 0 19 17" fill="none" xmlns="http://www.w3.org/2000/svg">
<path d="M17.1195 1.40626C16.2489 0.542118 15.0461 0.110229 13.5105 0.110229C13.0855 0.110229 12.6518 0.185127 12.2098 0.33485C11.7676 0.484682 11.3562 0.686826 10.9761 0.941134C10.5955 1.19537 10.2684 1.43412 9.99404 1.65702C9.71998 1.87999 9.45942 2.11695 9.21269 2.36771C8.96585 2.11695 8.70537 1.87999 8.43127 1.65702C8.15699 1.43412 7.82978 1.19552 7.44926 0.941134C7.06881 0.686716 6.65751 0.484719 6.2154 0.33485C5.77334 0.185164 5.3397 0.110229 4.91475 0.110229C3.37924 0.110229 2.17632 0.542228 1.30581 1.40626C0.435294 2.27022 0 3.46859 0 5.00147C0 5.46831 0.08067 5.94926 0.241686 6.44371C0.402702 6.93841 0.58619 7.36001 0.79179 7.70833C0.997355 8.05661 1.23047 8.39625 1.49095 8.72725C1.75144 9.05821 1.94181 9.28631 2.06162 9.41172C2.18155 9.53714 2.27583 9.62782 2.34436 9.6836L8.76025 15.9754C8.88367 16.1008 9.03446 16.1637 9.21265 16.1637C9.39085 16.1637 9.54175 16.1008 9.66509 15.9754L16.0708 9.70429C17.6405 8.10896 18.4253 6.54123 18.4253 5.00132C18.4254 3.46833 17.9901 2.27008 17.1195 1.40626ZM15.1762 8.72201L9.21269 14.5643L3.23897 8.71147C1.95711 7.40881 1.31629 6.1719 1.31629 5.00132C1.31629 4.43702 1.38997 3.93877 1.53727 3.50688C1.68467 3.07492 1.87316 2.73165 2.10279 2.47734C2.33244 2.22296 2.61173 2.01584 2.94074 1.85547C3.26994 1.69524 3.59208 1.58721 3.90734 1.53149C4.2226 1.47585 4.55843 1.44799 4.91493 1.44799C5.27131 1.44799 5.65525 1.53673 6.06653 1.71446C6.47773 1.89211 6.85644 2.11508 7.20257 2.3833C7.54876 2.6517 7.84523 2.9025 8.0921 3.13583C8.33883 3.36938 8.54439 3.5835 8.70894 3.77861C8.83224 3.93196 9.00032 4.00861 9.21273 4.00861C9.42521 4.00861 9.5931 3.93196 9.71655 3.77861C9.88106 3.5835 10.0868 3.36927 10.3335 3.13583C10.5803 2.9025 10.8768 2.65181 11.2228 2.3833C11.569 2.11508 11.9477 1.89211 12.3591 1.71446C12.7703 1.53677 13.1543 1.44799 13.5107 1.44799C13.8672 1.44799 14.2029 1.47585 14.5183 1.53149C14.8337 1.58717 15.1558 1.69524 15.4849 1.85547C15.8139 2.0158 16.0932 2.22307 16.3228 2.47734C16.5524 2.73165 16.741 3.07492 16.8884 3.50688C17.0356 3.93877 17.1092 4.43702 17.1092 5.00132C17.1092 6.1719 16.465 7.41225 15.1762 8.72201Z" fill="#3246D3"/>
</svg>
