<svg width="11" height="14" viewBox="0 0 11 14" fill="none" xmlns="http://www.w3.org/2000/svg">
<path d="M5.49475 0.770996C2.92625 0.770996 0.843994 2.90816 0.843994 5.54518C0.843994 7.67653 3.88361 11.5622 5.04819 12.9726C5.10281 13.0397 5.17111 13.0936 5.24827 13.1307C5.32543 13.1677 5.40957 13.1869 5.49475 13.1869C5.57992 13.1869 5.66406 13.1677 5.74122 13.1307C5.81838 13.0936 5.88669 13.0397 5.94131 12.9726C7.10589 11.5622 10.1455 7.67717 10.1455 5.54518C10.1455 2.90816 8.06324 0.770996 5.49475 0.770996ZM5.49475 6.9788C4.65958 6.9788 3.98313 6.28365 3.98313 5.42685C3.98313 4.56939 4.66021 3.8749 5.49475 3.8749C6.32929 3.8749 7.00637 4.56939 7.00637 5.42685C7.00637 6.28365 6.32929 6.9788 5.49475 6.9788Z" fill="#FF6647"/>
</svg>
