<svg width="16" height="18" viewBox="0 0 16 18" fill="none" xmlns="http://www.w3.org/2000/svg">
<path fill-rule="evenodd" clip-rule="evenodd" d="M8.5 7.65C10.2397 7.65 11.65 6.2397 11.65 4.5C11.65 2.7603 10.2397 1.35 8.5 1.35C6.7603 1.35 5.35 2.7603 5.35 4.5C5.35 6.2397 6.7603 7.65 8.5 7.65ZM8.5 9C10.9853 9 13 6.98528 13 4.5C13 2.01472 10.9853 0 8.5 0C6.01472 0 4 2.01472 4 4.5C4 6.98528 6.01472 9 8.5 9Z" fill="#9BAAD3"/>
<path fill-rule="evenodd" clip-rule="evenodd" d="M5.25714 12.3714C3.11112 12.3714 1.37143 14.1111 1.37143 16.2571V17.1714C1.37143 17.5501 1.06442 17.8571 0.685714 17.8571C0.307005 17.8571 0 17.5501 0 17.1714V16.2571C0 13.3537 2.3537 11 5.25714 11H10.7429C13.6463 11 16 13.3537 16 16.2571V17.1714C16 17.5501 15.693 17.8571 15.3143 17.8571C14.9356 17.8571 14.6286 17.5501 14.6286 17.1714V16.2571C14.6286 14.1111 12.8889 12.3714 10.7429 12.3714H5.25714Z" fill="#9BAAD3"/>
</svg>
