<svg width="10" height="11" viewBox="0 0 10 11" fill="none" xmlns="http://www.w3.org/2000/svg">
<path d="M9.92853 4.23327C9.91374 4.14441 9.86712 4.06402 9.79742 4.00721C9.72772 3.95039 9.63975 3.92107 9.55003 3.92475C9.46084 3.9269 9.37532 3.96085 9.30881 4.02051C9.24229 4.08017 9.19912 4.16164 9.18703 4.25033C9.15468 4.48286 9.0982 4.71135 9.01853 4.9321C8.74986 5.72834 8.25094 6.42627 7.58538 6.93689C6.91983 7.44751 6.11779 7.74769 5.28152 7.79916C5.18852 7.80819 5.09552 7.8122 4.99852 7.8122C4.70009 7.8124 4.41396 7.93154 4.20307 8.14341C3.99219 8.35528 3.87382 8.64253 3.87402 8.94196C3.87422 9.2414 3.99297 9.52849 4.20413 9.74008C4.4153 9.95167 4.70159 10.0704 5.00002 10.0702C6.18548 10.0759 7.33387 9.65605 8.23773 8.88644C9.14159 8.11683 9.74131 7.04824 9.92853 5.87374C10.0236 5.33108 10.0236 4.77594 9.92853 4.23327Z" fill="#757575"/>
<path d="M6.12494 1.16544C6.12454 0.866196 6.00589 0.579323 5.795 0.367725C5.5841 0.156127 5.29818 0.0370767 4.99994 0.0366785C3.81449 0.0309708 2.66609 0.450853 1.76223 1.22046C0.858371 1.99008 0.258655 3.05866 0.0714333 4.23316C-0.0236483 4.77583 -0.0236483 5.33097 0.0714333 5.87363C0.087125 5.96021 0.132608 6.03852 0.199951 6.09491C0.267294 6.15129 0.352224 6.18217 0.439934 6.18216H0.449934C0.539126 6.18001 0.62464 6.14606 0.691156 6.0864C0.757672 6.02674 0.800842 5.94526 0.812934 5.85657C0.845249 5.62421 0.901724 5.39587 0.981434 5.1753C1.26774 4.33432 1.80917 3.60432 2.52982 3.08764C3.25047 2.57096 4.11421 2.29352 4.99994 2.2942C5.29818 2.2938 5.5841 2.17475 5.795 1.96316C6.00589 1.75156 6.12454 1.46468 6.12494 1.16544Z" fill="#757575"/>
</svg>
