<svg width="14" height="14" viewBox="0 0 14 14" fill="none" xmlns="http://www.w3.org/2000/svg">
<path fill-rule="evenodd" clip-rule="evenodd" d="M11.8513 11.0594C12.8424 9.88857 13.44 8.37407 13.44 6.72C13.44 3.00865 10.4314 0 6.72 0C3.00865 0 0 3.00865 0 6.72C0 10.4314 3.00865 13.44 6.72 13.44C8.37407 13.44 9.88857 12.8424 11.0594 11.8513L13.044 13.836C13.2627 14.0547 13.6173 14.0547 13.836 13.836C14.0547 13.6173 14.0547 13.2627 13.836 13.044L11.8513 11.0594ZM12.32 6.72C12.32 9.81279 9.81279 12.32 6.72 12.32C3.62721 12.32 1.12 9.81279 1.12 6.72C1.12 3.62721 3.62721 1.12 6.72 1.12C9.81279 1.12 12.32 3.62721 12.32 6.72Z" fill="black"/>
</svg>
