<svg width="15" height="16" viewBox="0 0 15 16" fill="none" xmlns="http://www.w3.org/2000/svg">
<path fill-rule="evenodd" clip-rule="evenodd" d="M7 9.875C8.03553 9.875 8.875 9.03553 8.875 8C8.875 6.96447 8.03553 6.125 7 6.125C5.96447 6.125 5.125 6.96447 5.125 8C5.125 9.03553 5.96447 9.875 7 9.875ZM10 8C10 9.65685 8.65685 11 7 11C5.34315 11 4 9.65685 4 8C4 6.34315 5.34315 5 7 5C8.65685 5 10 6.34315 10 8Z" fill="#9BAAD3"/>
<path fill-rule="evenodd" clip-rule="evenodd" d="M6.55232 1.33955L6.27047 2.18513C6.03281 2.89811 5.51129 3.40318 4.96499 3.70736C4.9184 3.7333 4.87228 3.75998 4.82663 3.78738C4.28942 4.10988 3.59029 4.30958 2.85311 4.15873L1.97909 3.97988C1.82575 3.9485 1.66953 4.01876 1.59127 4.15431L1.13964 4.93655C1.06138 5.0721 1.07864 5.24252 1.18249 5.35963L1.77524 6.02808C2.27273 6.5891 2.45088 7.2922 2.44095 7.91868C2.44009 7.97287 2.44009 8.0271 2.44095 8.08129C2.45087 8.70777 2.27272 9.41086 1.77523 9.97188L1.18249 10.6403C1.07864 10.7574 1.06138 10.9279 1.13964 11.0634L1.59127 11.8456C1.66953 11.9812 1.82575 12.0515 1.97909 12.0201L2.85305 11.8412C3.59024 11.6904 4.28938 11.8901 4.82659 12.2126C4.87225 12.24 4.91839 12.2667 4.96499 12.2926C5.51129 12.5968 6.03281 13.1019 6.27047 13.8149L6.55232 14.6604C6.60182 14.8089 6.74078 14.9091 6.8973 14.9091H7.80055C7.95707 14.9091 8.09603 14.8089 8.14552 14.6604L8.42738 13.8149C8.66504 13.1019 9.18656 12.5968 9.73286 12.2926C9.77945 12.2667 9.82559 12.24 9.87125 12.2126C10.4085 11.8901 11.1076 11.6904 11.8448 11.8412L12.7187 12.0201C12.8721 12.0515 13.0283 11.9812 13.1065 11.8456L13.5582 11.0634C13.6364 10.9279 13.6192 10.7574 13.5153 10.6403L12.9226 9.97192C12.4251 9.4109 12.247 8.7078 12.2569 8.08132C12.2578 8.02711 12.2578 7.97286 12.2569 7.91866C12.247 7.29216 12.4251 6.58906 12.9226 6.02804L13.5153 5.35963C13.6192 5.24252 13.6364 5.0721 13.5582 4.93655L13.1065 4.15431C13.0283 4.01876 12.8721 3.9485 12.7187 3.97988L11.8447 4.15873C11.1076 4.30958 10.4084 4.10988 9.87121 3.78738C9.82556 3.75998 9.77944 3.7333 9.73286 3.70736C9.18656 3.40318 8.66504 2.89811 8.42738 2.18513L8.14552 1.33955C8.09603 1.19107 7.95707 1.09091 7.80055 1.09091H6.8973C6.74078 1.09091 6.60182 1.19107 6.55232 1.33955ZM5.23554 1.84015C5.103 2.23777 4.80047 2.55035 4.43428 2.75425C4.37732 2.78596 4.32094 2.81857 4.26514 2.85207C3.90536 3.06805 3.48292 3.1741 3.07181 3.08997L2.19779 2.91112C1.58442 2.7856 0.959552 3.06666 0.646512 3.60886L0.194889 4.39109C-0.118151 4.93329 -0.0491182 5.61498 0.366267 6.08341L0.959015 6.75186C1.23677 7.06509 1.35681 7.48281 1.35018 7.9014C1.34914 7.9671 1.34914 8.03286 1.35018 8.09857C1.35681 8.51715 1.23677 8.93487 0.959013 9.24809L0.366268 9.91654C-0.0491175 10.385 -0.118151 11.0667 0.194889 11.6089L0.646512 12.3911C0.959553 12.9333 1.58442 13.2144 2.19779 13.0888L3.07175 12.91C3.48287 12.8259 3.90531 12.9319 4.26509 13.1479C4.32091 13.1814 4.37731 13.214 4.43428 13.2458C4.80047 13.4497 5.103 13.7622 5.23554 14.1599L5.5174 15.0054C5.71538 15.5994 6.27122 16 6.8973 16H7.80055C8.42663 16 8.98246 15.5994 9.18045 15.0054L9.46231 14.1599C9.59485 13.7622 9.89737 13.4497 10.2636 13.2458C10.3205 13.214 10.3769 13.1814 10.4327 13.1479C10.7925 12.9319 11.215 12.8259 11.6261 12.91L12.5 13.0888C13.1134 13.2144 13.7383 12.9333 14.0513 12.3911L14.5029 11.6089C14.816 11.0667 14.7469 10.385 14.3315 9.91654L13.7388 9.24813C13.4611 8.93491 13.341 8.51719 13.3477 8.0986C13.3487 8.03287 13.3487 7.96709 13.3477 7.90137C13.341 7.48277 13.4611 7.06505 13.7388 6.75182L14.3315 6.08341C14.7469 5.61498 14.816 4.9333 14.5029 4.39109L14.0513 3.60886C13.7383 3.06666 13.1134 2.7856 12.5 2.91112L11.626 3.08997C11.2149 3.17409 10.7925 3.06805 10.4327 2.85207C10.3769 2.81857 10.3205 2.78596 10.2636 2.75425C9.89737 2.55035 9.59485 2.23777 9.46231 1.84015L9.18045 0.994577C8.98246 0.400625 8.42663 0 7.80055 0H6.8973C6.27122 0 5.71538 0.400626 5.5174 0.994578L5.23554 1.84015Z" fill="#9BAAD3"/>
</svg>
