<svg width="16" height="17" viewBox="0 0 16 17" fill="none" xmlns="http://www.w3.org/2000/svg">
<path d="M14.0001 0.863379H2.00012C1.57567 0.863379 1.16867 1.03256 0.868633 1.3336C0.568612 1.63462 0.400122 2.04283 0.400122 2.4684V14.5085C0.400122 14.9341 0.568612 15.3423 0.868633 15.6433C1.16867 15.9444 1.57567 16.1136 2.00012 16.1136H14.0001C14.4246 16.1136 14.8316 15.9444 15.1316 15.6433C15.4316 15.3423 15.6001 14.9341 15.6001 14.5085V2.4684C15.6001 2.04283 15.4316 1.63462 15.1316 1.3336C14.8316 1.03256 14.4246 0.863379 14.0001 0.863379ZM2.00012 14.7848C1.9273 14.7848 1.85738 14.7558 1.80579 14.704C1.75418 14.6522 1.72512 14.5819 1.72512 14.5085V7.83596H8.37512C8.44795 7.83596 8.51786 7.86498 8.56946 7.91675C8.62107 7.96853 8.65012 8.03884 8.65012 8.11221V14.7848H2.00012ZM14.2751 14.5085C14.2751 14.5819 14.2461 14.6522 14.1945 14.704C14.1429 14.7558 14.0729 14.7848 14.0001 14.7848H9.97512V8.11221C9.97512 7.68664 9.80663 7.27843 9.50661 6.97741C9.20658 6.67637 8.79958 6.50719 8.37512 6.50719H1.72512V2.4684C1.72512 2.39502 1.75418 2.32472 1.80579 2.27294C1.85738 2.22117 1.9273 2.19214 2.00012 2.19214H14.0001C14.0729 2.19214 14.1429 2.22117 14.1945 2.27294C14.2461 2.32472 14.2751 2.39502 14.2751 2.4684V14.5085Z" fill="#757575" stroke="#757575" stroke-width="0.2"/>
</svg>
